<?xml version="1.0" encoding="UTF-8" standalone="no" ?>
<!DOCTYPE svg PUBLIC "-//W3C//DTD SVG 1.1//EN" "http://www.w3.org/Graphics/SVG/1.1/DTD/svg11.dtd">
<svg xmlns="http://www.w3.org/2000/svg" xmlns:xlink="http://www.w3.org/1999/xlink" version="1.1" width="160" height="160" viewBox="0 0 160 160" xml:space="preserve">
<desc>Created with Fabric.js 4.6.0</desc>
<defs>
</defs>
<g transform="matrix(1 0 0 1 14.58 14.58)" id="h_N2tOvXqxZEKfCTd2fPw"  >
<path style="stroke: rgb(85,97,74); stroke-width: 0; stroke-dasharray: none; stroke-linecap: butt; stroke-dashoffset: 0; stroke-linejoin: miter; stroke-miterlimit: 4; fill: rgb(0,0,0); fill-rule: nonzero; opacity: 1;" vector-effect="non-scaling-stroke"  transform=" translate(-14.58, -14.58)" d="M 14.57884 0 C 22.62636 0 29.15768 6.53132 29.15768 14.57884 C 29.15768 22.62636 22.62636 29.15768 14.57884 29.15768 C 6.531319999999999 29.15768 0 22.62636 0 14.57884 C 0 6.531319999999999 6.53132 0 14.57884 0 z" stroke-linecap="round" />
</g>
<g transform="matrix(1 0 0 1 145.42 145.42)" id="tUuufHoTi7Pc-M4iyu_XY"  >
<path style="stroke: rgb(85,97,74); stroke-width: 0; stroke-dasharray: none; stroke-linecap: butt; stroke-dashoffset: 0; stroke-linejoin: miter; stroke-miterlimit: 4; fill: rgb(0,0,0); fill-rule: nonzero; opacity: 1;" vector-effect="non-scaling-stroke"  transform=" translate(-14.58, -14.58)" d="M 14.57884 0 C 22.62636 0 29.15768 6.53132 29.15768 14.57884 C 29.15768 22.62636 22.62636 29.15768 14.57884 29.15768 C 6.531319999999999 29.15768 0 22.62636 0 14.57884 C 0 6.531319999999999 6.53132 0 14.57884 0 z" stroke-linecap="round" />
</g>
<g transform="matrix(1 0 0 1 145.42 14.58)" id="nuctgquEc5fH5YHq9Znob"  >
<path style="stroke: rgb(85,97,74); stroke-width: 0; stroke-dasharray: none; stroke-linecap: butt; stroke-dashoffset: 0; stroke-linejoin: miter; stroke-miterlimit: 4; fill: rgb(0,0,0); fill-rule: nonzero; opacity: 1;" vector-effect="non-scaling-stroke"  transform=" translate(-14.58, -14.58)" d="M 14.57884 0 C 22.62636 0 29.15768 6.53132 29.15768 14.57884 C 29.15768 22.62636 22.62636 29.15768 14.57884 29.15768 C 6.531319999999999 29.15768 0 22.62636 0 14.57884 C 0 6.531319999999999 6.53132 0 14.57884 0 z" stroke-linecap="round" />
</g>
<g transform="matrix(1 0 0 1 110.06 50.05)" id="J9vxW7vpsKmKo5ZL_yZCC"  >
<path style="stroke: rgb(85,97,74); stroke-width: 0; stroke-dasharray: none; stroke-linecap: butt; stroke-dashoffset: 0; stroke-linejoin: miter; stroke-miterlimit: 4; fill: rgb(0,0,0); fill-rule: nonzero; opacity: 1;" vector-effect="non-scaling-stroke"  transform=" translate(-14.58, -14.58)" d="M 14.57884 0 C 22.62636 0 29.15768 6.53132 29.15768 14.57884 C 29.15768 22.62636 22.62636 29.15768 14.57884 29.15768 C 6.531319999999999 29.15768 0 22.62636 0 14.57884 C 0 6.531319999999999 6.53132 0 14.57884 0 z" stroke-linecap="round" />
</g>
<g transform="matrix(1 0 0 1 145.42 85.42)" id="H3cOUlEXkBqIMrHE5SJKQ"  >
<path style="stroke: rgb(85,97,74); stroke-width: 0; stroke-dasharray: none; stroke-linecap: butt; stroke-dashoffset: 0; stroke-linejoin: miter; stroke-miterlimit: 4; fill: rgb(0,0,0); fill-rule: nonzero; opacity: 1;" vector-effect="non-scaling-stroke"  transform=" translate(-14.58, -14.58)" d="M 14.57884 0 C 22.62636 0 29.15768 6.53132 29.15768 14.57884 C 29.15768 22.62636 22.62636 29.15768 14.57884 29.15768 C 6.531319999999999 29.15768 0 22.62636 0 14.57884 C 0 6.531319999999999 6.53132 0 14.57884 0 z" stroke-linecap="round" />
</g>
<g transform="matrix(0.79 0.79 -1.41 1.41 128.41 31.5)" id="AADoxuBqyoxVxEVtubzfY"  >
<path style="stroke: rgb(236,76,198); stroke-width: 0; stroke-dasharray: none; stroke-linecap: butt; stroke-dashoffset: 0; stroke-linejoin: miter; stroke-miterlimit: 4; fill: rgb(0,0,0); fill-rule: nonzero; opacity: 1;" vector-effect="non-scaling-stroke"  transform=" translate(0, 0)" d="M -12.95896 -12.95896 L 12.958969999999999 -12.95896 L 12.958969999999999 12.958969999999999 L -12.95896 12.958969999999999 z" stroke-linecap="round" />
</g>
<g transform="matrix(0.79 -0.79 1.41 1.41 128.59 68.59)" id="eJVYHEjhY7a-JKsRLrVTb"  >
<path style="stroke: rgb(236,76,198); stroke-width: 0; stroke-dasharray: none; stroke-linecap: butt; stroke-dashoffset: 0; stroke-linejoin: miter; stroke-miterlimit: 4; fill: rgb(0,0,0); fill-rule: nonzero; opacity: 1;" vector-effect="non-scaling-stroke"  transform=" translate(0, 0)" d="M -12.95896 -12.95896 L 12.958969999999999 -12.95896 L 12.958969999999999 12.958969999999999 L -12.95896 12.958969999999999 z" stroke-linecap="round" />
</g>
<g transform="matrix(0.79 -0.79 0.47 0.47 19.17 139.17)" id="tv6DiZHzZqVH5XsPJJkUW"  >
<path style="stroke: rgb(236,76,198); stroke-width: 0; stroke-dasharray: none; stroke-linecap: butt; stroke-dashoffset: 0; stroke-linejoin: miter; stroke-miterlimit: 4; fill: rgb(0,0,0); fill-rule: nonzero; opacity: 1;" vector-effect="non-scaling-stroke"  transform=" translate(0, 0)" d="M -12.95896 -12.95896 L 12.958969999999999 -12.95896 L 12.958969999999999 12.958969999999999 L -12.95896 12.958969999999999 z" stroke-linecap="round" />
</g>
<g transform="matrix(0.79 -0.79 5.09 5.09 80.05 80.05)" id="Rb8B8vrV2jWhsA7LFxsj6"  >
<path style="stroke: rgb(236,76,198); stroke-width: 0; stroke-dasharray: none; stroke-linecap: butt; stroke-dashoffset: 0; stroke-linejoin: miter; stroke-miterlimit: 4; fill: rgb(0,0,0); fill-rule: nonzero; opacity: 1;" vector-effect="non-scaling-stroke"  transform=" translate(0, 0)" d="M -12.95896 -12.95896 L 12.958969999999999 -12.95896 L 12.958969999999999 12.958969999999999 L -12.95896 12.958969999999999 z" stroke-linecap="round" />
</g>
<g transform="matrix(0.79 -0.79 2.77 2.77 49.59 109.59)" id="0JMkX7u-Wz4Yq2r72zXHI"  >
<path style="stroke: rgb(236,76,198); stroke-width: 0; stroke-dasharray: none; stroke-linecap: butt; stroke-dashoffset: 0; stroke-linejoin: miter; stroke-miterlimit: 4; fill: rgb(0,0,0); fill-rule: nonzero; opacity: 1;" vector-effect="non-scaling-stroke"  transform=" translate(0, 0)" d="M -12.95896 -12.95896 L 12.958969999999999 -12.95896 L 12.958969999999999 12.958969999999999 L -12.95896 12.958969999999999 z" stroke-linecap="round" />
</g>
<g transform="matrix(1 0 0 1 14.58 74.58)" id="UlVrnEYizmBT0cmkB9PTz"  >
<path style="stroke: rgb(85,97,74); stroke-width: 0; stroke-dasharray: none; stroke-linecap: butt; stroke-dashoffset: 0; stroke-linejoin: miter; stroke-miterlimit: 4; fill: rgb(0,0,0); fill-rule: nonzero; opacity: 1;" vector-effect="non-scaling-stroke"  transform=" translate(-14.58, -14.58)" d="M 14.57884 0 C 22.62636 0 29.15768 6.53132 29.15768 14.57884 C 29.15768 22.62636 22.62636 29.15768 14.57884 29.15768 C 6.531319999999999 29.15768 0 22.62636 0 14.57884 C 0 6.531319999999999 6.53132 0 14.57884 0 z" stroke-linecap="round" />
</g>
<g transform="matrix(1 0 0 1 85.42 145.42)" id="Kd70EBANyiJkBF2lG-hm4"  >
<path style="stroke: rgb(85,97,74); stroke-width: 0; stroke-dasharray: none; stroke-linecap: butt; stroke-dashoffset: 0; stroke-linejoin: miter; stroke-miterlimit: 4; fill: rgb(0,0,0); fill-rule: nonzero; opacity: 1;" vector-effect="non-scaling-stroke"  transform=" translate(-14.58, -14.58)" d="M 14.57884 0 C 22.62636 0 29.15768 6.53132 29.15768 14.57884 C 29.15768 22.62636 22.62636 29.15768 14.57884 29.15768 C 6.531319999999999 29.15768 0 22.62636 0 14.57884 C 0 6.531319999999999 6.53132 0 14.57884 0 z" stroke-linecap="round" />
</g>
<g transform="matrix(1 0 0 1 14.58 134.58)" id="KuPmjmSWaQIPCW-u7MsJf"  >
<path style="stroke: rgb(85,97,74); stroke-width: 0; stroke-dasharray: none; stroke-linecap: butt; stroke-dashoffset: 0; stroke-linejoin: miter; stroke-miterlimit: 4; fill: rgb(0,0,0); fill-rule: nonzero; opacity: 1;" vector-effect="non-scaling-stroke"  transform=" translate(-14.58, -14.58)" d="M 14.57884 0 C 22.62636 0 29.15768 6.53132 29.15768 14.57884 C 29.15768 22.62636 22.62636 29.15768 14.57884 29.15768 C 6.531319999999999 29.15768 0 22.62636 0 14.57884 C 0 6.531319999999999 6.53132 0 14.57884 0 z" stroke-linecap="round" />
</g>
<g transform="matrix(1 0 0 1 25.42 145.42)" id="pQ1qgysE28-FY1xm2fYw-"  >
<path style="stroke: rgb(85,97,74); stroke-width: 0; stroke-dasharray: none; stroke-linecap: butt; stroke-dashoffset: 0; stroke-linejoin: miter; stroke-miterlimit: 4; fill: rgb(0,0,0); fill-rule: nonzero; opacity: 1;" vector-effect="non-scaling-stroke"  transform=" translate(-14.58, -14.58)" d="M 14.57884 0 C 22.62636 0 29.15768 6.53132 29.15768 14.57884 C 29.15768 22.62636 22.62636 29.15768 14.57884 29.15768 C 6.531319999999999 29.15768 0 22.62636 0 14.57884 C 0 6.531319999999999 6.53132 0 14.57884 0 z" stroke-linecap="round" />
</g>
</svg>